<svg width="22" height="24" viewBox="0 0 22 24" fill="none" xmlns="http://www.w3.org/2000/svg">
<path d="M14.75 18.25H21L19.2438 16.4938C19.0079 16.2578 18.8208 15.9778 18.6932 15.6696C18.5656 15.3614 18.4999 15.0311 18.5 14.6975V10.75C18.5002 9.19867 18.0195 7.68543 17.124 6.41861C16.2286 5.15179 14.9625 4.1937 13.5 3.67625V3.25C13.5 2.58696 13.2366 1.95107 12.7678 1.48223C12.2989 1.01339 11.663 0.75 11 0.75C10.337 0.75 9.70108 1.01339 9.23223 1.48223C8.76339 1.95107 8.5 2.58696 8.5 3.25V3.67625C5.5875 4.70625 3.5 7.485 3.5 10.75V14.6988C3.5 15.3713 3.2325 16.0175 2.75625 16.4938L1 18.25H7.25M14.75 18.25V19.5C14.75 20.4946 14.3549 21.4484 13.6517 22.1517C12.9484 22.8549 11.9946 23.25 11 23.25C10.0054 23.25 9.05161 22.8549 8.34835 22.1517C7.64509 21.4484 7.25 20.4946 7.25 19.5V18.25M14.75 18.25H7.25" stroke="#212828" stroke-width="1.5" stroke-linecap="round" stroke-linejoin="round"/>
</svg>
